<svg width="32" height="32" viewBox="0 0 32 32" fill="none" xmlns="http://www.w3.org/2000/svg"><g clip-path="url(#c3)"><path d="M32 9.905H30.47V22.095H32V9.905Z" fill="white"/><path d="M30.47 22.095H22.85V23.615H30.47V22.095Z" fill="white"/><path d="M28.95 11.425H27.42V12.955H28.95V11.425Z" fill="white"/><path d="M25.9 11.425H24.38V12.955H25.9V11.425Z" fill="white"/><path d="M22.85 23.615H21.33V25.145H22.85V23.615Z" fill="white"/><path d="M22.85 11.425H21.33V12.955H22.85V11.425Z" fill="white"/><path d="M1.52 29.715H15.23V28.2H16.76V26.67H21.33V25.15H16.76V9.9H30.47V8.385H16.76V6.855H15.23V5.335H12.19V2.285H4.57V5.335H1.52V6.855H0V28.2H1.52V29.715ZM6.09 3.815H10.66V5.335H6.09V3.815ZM1.52 23.615H4.57V22.1H1.52V12.96H4.57V11.43H1.52V9.9H15.23V25.14H1.52V23.615Z" fill="white"/><path d="M19.8 22.095H18.28V23.615H19.8V22.095Z" fill="white"/><path d="M19.8 11.425H18.28V12.955H19.8V11.425Z" fill="white"/><path d="M13.71 16.005H12.19V23.615H13.71V16.005Z" fill="white"/><path d="M13.71 11.425H12.19V12.955H13.71V11.425Z" fill="white"/><path d="M10.66 20.575H9.14V23.615H10.66V20.575Z" fill="white"/><path d="M6.09 12.955H4.57V22.095H6.09V12.955Z" fill="white"/></g><defs><clipPath id="c3"><rect width="32" height="32" fill="white"/></clipPath></defs></svg>
