<svg width="32" height="32" viewBox="0 0 32 32" fill="none" xmlns="http://www.w3.org/2000/svg"><g clip-path="url(#c2)"><path d="M32 24.38H30.47V30.48H32V24.38Z" fill="white"/><path d="M32 12.19H30.47V18.29H32V12.19Z" fill="white"/><path d="M30.47 22.86H28.95V24.38H30.47V22.86Z" fill="white"/><path d="M30.47 18.29H28.95V19.81H30.47V18.29Z" fill="white"/><path d="M24.38 30.48V25.9H22.85V30.48H1.52V32H30.47V30.48H24.38Z" fill="white"/><path d="M28.95 19.81H27.42V22.86H28.95V19.81Z" fill="white"/><path d="M27.42 3.05H25.9V6.1H27.42V3.05Z" fill="white"/><path d="M25.9 6.1H24.38V9.14H25.9V6.1Z" fill="white"/><path d="M25.9 1.52H24.38V3.05H25.9V1.52Z" fill="white"/><path d="M24.38 19.81H22.85V22.86H24.38V19.81Z" fill="white"/><path d="M24.38 0H21.33V1.52H24.38V0Z" fill="white"/><path d="M21.33 1.52H18.28V3.05H21.33V1.52Z" fill="white"/><path d="M19.8 16.76H7.61V18.29H13.71V19.81H12.19V21.33H10.66V22.86H9.14V24.38H7.61V25.9H19.8V24.38H21.33V18.29H19.8V16.76Z" fill="white"/><path d="M19.8 6.1H18.28V9.14H19.8V6.1Z" fill="white"/><path d="M16.76 6.1H18.28V3.05H15.23V4.57H16.76V6.1Z" fill="white"/><path d="M15.23 4.57H12.19V6.1H15.23V4.57Z" fill="white"/><path d="M12.19 6.1H9.14V7.62H12.19V6.1Z" fill="white"/><path d="M9.14 7.62H6.09V9.14H9.14V7.62Z" fill="white"/><path d="M7.61 18.29H6.09V24.38H7.61V18.29Z" fill="white"/><path d="M4.57 19.81H3.04V22.86H4.57V19.81Z" fill="white"/><path d="M22.85 12.19V16.76H24.38V12.19H30.47V10.67H27.42V9.14H25.9V10.67H21.33V9.14H19.8V10.67H16.76V7.62H13.71V9.14H10.66V10.67H6.09V9.14H3.04V10.67H1.52V12.19H22.85Z" fill="white"/><path d="M3.04 22.86H1.52V24.38H3.04V22.86Z" fill="white"/><path d="M3.04 18.29H1.52V19.81H3.04V18.29Z" fill="white"/><path d="M1.52 24.38H0V30.48H1.52V24.38Z" fill="white"/><path d="M1.52 12.19H0V18.29H1.52V12.19Z" fill="white"/></g><defs><clipPath id="c2"><rect width="32" height="32" fill="white"/></clipPath></defs></svg>
